<svg width="465" height="221" viewBox="0 0 465 221" fill="none" xmlns="http://www.w3.org/2000/svg">
<path d="M124.072 180.121C118.563 176.036 110.785 177.192 106.701 182.702C102.616 188.211 103.772 195.989 109.282 200.074C114.792 204.158 122.569 203.002 126.654 197.493C130.738 191.983 129.582 184.205 124.072 180.121Z" fill="#433298"/>
<path d="M100.589 154.524C88.7824 145.772 72.1162 148.248 63.3637 160.055C54.6116 171.862 57.0877 188.528 68.8948 197.28C80.7014 206.032 97.3677 203.556 106.12 191.749C114.872 179.942 112.396 163.276 100.589 154.524Z" fill="#FFBC0F"/>
<path d="M28.5072 144.811C46.6108 158.231 72.1657 154.434 85.5861 136.33C99.0062 118.227 95.2093 92.6716 77.1056 79.2513C59.0018 65.8314 33.447 69.6283 20.0269 87.7316C6.60676 105.835 10.4035 131.391 28.5072 144.811Z" fill="#FE803C"/>
<path d="M58.25 76.6376C70.0567 85.3895 86.7231 82.9135 95.4752 71.1067C104.228 59.2999 101.751 42.6337 89.9446 33.8814C78.1379 25.1291 61.4714 27.6053 52.7194 39.4121C43.9669 51.2188 46.4432 67.8853 58.25 76.6376Z" fill="#EA5F47"/>
<path d="M109.282 40.3958C114.792 44.4801 122.569 43.3246 126.653 37.8148C130.738 32.305 129.582 24.5273 124.073 20.443C118.563 16.3586 110.785 17.5141 106.701 23.0239C102.616 28.5337 103.772 36.3114 109.282 40.3958Z" fill="#4EA99C"/>
<path d="M181.768 109.32V113.073C181.768 120.581 179.282 126.733 174.309 131.529C169.336 136.273 162.846 138.645 154.837 138.645C146.357 138.645 139.343 135.908 133.795 130.434C128.299 124.96 125.551 118.235 125.551 110.258C125.551 102.334 128.299 95.6345 133.795 90.1604C139.343 84.6342 146.2 81.8711 154.366 81.8711C159.496 81.8711 164.18 83.0441 168.42 85.3902C172.66 87.7362 175.958 90.8903 178.313 94.8525L170.54 99.31C169.075 96.7033 166.902 94.6179 164.023 93.0539C161.144 91.4377 157.925 90.6296 154.366 90.6296C148.608 90.6296 143.871 92.5065 140.155 96.2601C136.438 100.014 134.58 104.706 134.58 110.336C134.58 115.967 136.438 120.633 140.155 124.334C143.923 128.036 148.844 129.887 154.916 129.887C159.784 129.887 163.736 128.766 166.771 126.524C169.86 124.23 171.823 121.18 172.66 117.375H154.287V109.32H181.768Z" fill="black"/>
<path d="M202.978 129.027H227.317V137.629H193.948V82.8877H226.925V91.4899H202.978V105.723H224.962V114.246H202.978V129.027Z" fill="black"/>
<path d="M272.485 82.8877H281.515V137.629H274.448L248.538 100.483V137.629H239.509V82.8877H246.575L272.485 120.033V82.8877Z" fill="black"/>
<path d="M305.446 129.027H329.786V137.629H296.417V82.8877H329.394V91.4899H305.446V105.723H327.431V114.246H305.446V129.027Z" fill="black"/>
<path d="M360.272 138.645C354.985 138.645 350.483 137.446 346.767 135.048C343.103 132.65 340.538 129.365 339.073 125.195L346.846 120.659C349.044 126.811 353.598 129.887 360.507 129.887C363.91 129.887 366.448 129.235 368.123 127.932C369.851 126.576 370.714 124.83 370.714 122.692C370.714 120.45 369.798 118.756 367.966 117.609C366.134 116.41 362.889 115.107 358.23 113.699C355.613 112.917 353.493 112.187 351.871 111.509C350.248 110.832 348.521 109.893 346.689 108.694C344.909 107.443 343.574 105.905 342.684 104.08C341.794 102.256 341.349 100.118 341.349 97.6678C341.349 92.8193 343.077 88.9874 346.532 86.1722C349.986 83.3048 354.148 81.8711 359.015 81.8711C363.412 81.8711 367.26 82.9398 370.557 85.0773C373.855 87.2149 376.394 90.1604 378.173 93.9141L370.557 98.2934C368.254 93.1842 364.407 90.6296 359.015 90.6296C356.398 90.6296 354.305 91.2553 352.734 92.5065C351.164 93.7056 350.379 95.3478 350.379 97.4332C350.379 99.4664 351.164 101.083 352.734 102.282C354.357 103.429 357.262 104.654 361.449 105.957C363.543 106.635 365.061 107.156 366.003 107.521C366.998 107.834 368.359 108.355 370.086 109.085C371.866 109.815 373.201 110.545 374.09 111.275C374.98 112.005 375.923 112.917 376.917 114.012C377.964 115.107 378.697 116.358 379.115 117.766C379.534 119.173 379.744 120.763 379.744 122.536C379.744 127.489 377.938 131.425 374.326 134.344C370.767 137.212 366.082 138.645 360.272 138.645Z" fill="black"/>
<path d="M391.065 82.8877H400.094V137.629H391.065V82.8877Z" fill="black"/>
<path d="M432.531 138.645C427.244 138.645 422.742 137.446 419.026 135.048C415.362 132.65 412.797 129.365 411.331 125.195L419.104 120.659C421.303 126.811 425.857 129.887 432.766 129.887C436.168 129.887 438.707 129.235 440.382 127.932C442.109 126.576 442.973 124.83 442.973 122.692C442.973 120.45 442.057 118.756 440.225 117.609C438.393 116.41 435.148 115.107 430.489 113.699C427.872 112.917 425.752 112.187 424.129 111.509C422.507 110.832 420.779 109.893 418.947 108.694C417.168 107.443 415.833 105.905 414.943 104.08C414.053 102.256 413.608 100.118 413.608 97.6678C413.608 92.8193 415.336 88.9874 418.79 86.1722C422.245 83.3048 426.406 81.8711 431.274 81.8711C435.671 81.8711 439.518 82.9398 442.816 85.0773C446.114 87.2149 448.652 90.1604 450.432 93.9141L442.816 98.2934C440.513 93.1842 436.666 90.6296 431.274 90.6296C428.657 90.6296 426.563 91.2553 424.993 92.5065C423.423 93.7056 422.638 95.3478 422.638 97.4332C422.638 99.4664 423.423 101.083 424.993 102.282C426.616 103.429 429.521 104.654 433.708 105.957C435.802 106.635 437.32 107.156 438.262 107.521C439.257 107.834 440.618 108.355 442.345 109.085C444.125 109.815 445.459 110.545 446.349 111.275C447.239 112.005 448.181 112.917 449.176 114.012C450.223 115.107 450.956 116.358 451.374 117.766C451.793 119.173 452.002 120.763 452.002 122.536C452.002 127.489 450.197 131.425 446.585 134.344C443.025 137.212 438.341 138.645 432.531 138.645Z" fill="black"/>
</svg>
